<?xml version="1.0" encoding="UTF-8" standalone="no" ?>
<svg xmlns="http://www.w3.org/2000/svg" xmlns:xlink="http://www.w3.org/1999/xlink" style="isolation:isolate" viewBox="0 0 140 140" width="140pt" height="140pt">
  <defs>
    <clipPath id="_clipPath_XAO66GXMrva5ydseKCIrMvudWGy3NPrG">
      <rect width="140" height="140"/>
    </clipPath>
  </defs>
  <g clip-path="url(#_clipPath_XAO66GXMrva5ydseKCIrMvudWGy3NPrG)">
    <g style="isolation:isolate">
      <path d="M 15.4 0 L 124.6 0 C 133.099 0 140 6.901 140 15.4 L 140 124.6 C 140 133.099 133.099 140 124.6 140 L 15.4 140 C 6.901 140 0 133.099 0 124.6 L 0 15.4 C 0 6.901 6.901 0 15.4 0 Z" style="stroke:none;fill:#DC332D;stroke-miterlimit:10;"/>
      <g style="isolation:isolate">
        <g>
          <path d=" M 34.638 23.468 L 31.207 13.827 C 56.629 4.794 86.103 11.876 104.453 33.744 C 122.802 55.613 124.658 85.868 111.348 109.336 L 102.45 104.283 C 113.712 84.426 112.142 58.825 96.615 40.321 C 81.088 21.817 56.149 15.825 34.638 23.468 Z " fill-rule="evenodd" fill="rgb(255,255,255)"/>
          <path d=" M 41.5 42.749 L 38.069 33.108 C 55.669 26.855 76.074 31.757 88.778 46.897 C 101.481 62.037 102.766 82.983 93.551 99.23 L 84.653 94.177 C 91.82 81.54 90.821 65.249 80.94 53.473 C 71.06 41.698 55.189 37.885 41.5 42.749 Z " fill-rule="evenodd" fill="rgb(255,255,255)"/>
          <path d=" M 48.362 62.03 L 44.931 52.39 C 54.709 48.915 66.045 51.639 73.103 60.05 C 80.16 68.461 80.874 80.098 75.755 89.124 L 66.857 84.07 C 69.928 78.655 69.5 71.673 65.265 66.626 C 61.031 61.58 54.229 59.946 48.362 62.03 Z " fill-rule="evenodd" fill="rgb(255,255,255)"/>
        </g>
        <g>
          <path d=" M 20 80.444 Q 57.521 76.386 57.11 72 C 57.089 76.638 57.142 78.708 57.11 85.136 Q 57.089 89.336 20 93.58 L 20 80.444 Z " fill="rgb(255,255,255)"/>
          <path d=" M 20 98.654 Q 57.521 94.596 57.11 90.21 C 57.089 94.848 57.142 96.918 57.11 103.346 Q 57.089 107.546 20 111.79 L 20 98.654 Z " fill="rgb(255,255,255)"/>
          <path d=" M 20 116.864 Q 57.521 112.806 57.11 108.42 C 57.089 113.058 57.142 115.128 57.11 121.556 Q 57.089 125.756 20 130 L 20 116.864 Z " fill="rgb(255,255,255)"/>
        </g>
      </g>
    </g>
  </g>
</svg>